<svg xmlns="http://www.w3.org/2000/svg" xmlns:xlink="http://www.w3.org/1999/xlink" viewBox="0 0 832.41 263.67"><defs><style>.cls-1,.cls-3,.cls-4{fill:none;}.cls-17,.cls-18,.cls-2{fill:#fbb03b;}.cls-3{stroke:#fbb03b;}.cls-3,.cls-4{stroke-miterlimit:10;}.cls-4{stroke:#00a99d;stroke-width:3px;}.cls-5,.cls-7{fill:#00a99d;}.cls-6{clip-path:url(#clip-path);}.cls-7{font-size:85px;font-family:CFNightofTerrorPERSONAL-Reg, CF Night of Terror PERSONAL;}.cls-8{letter-spacing:-0.11em;}.cls-9{letter-spacing:-0.08em;}.cls-10{letter-spacing:-0.09em;}.cls-11{letter-spacing:-0.07em;}.cls-12{letter-spacing:-0.06em;}.cls-13{letter-spacing:-0.08em;}.cls-14{letter-spacing:-0.04em;}.cls-15{letter-spacing:-0.07em;}.cls-16{letter-spacing:-0.04em;}.cls-17{letter-spacing:-0.03em;}.cls-18{letter-spacing:0em;}.cls-19{font-size:40px;fill:#4d4d4d;font-family:Pristina-Regular, Pristina;}</style><clipPath id="clip-path"><circle class="cls-1" cx="96.09" cy="96.09" r="94.59"/></clipPath></defs><title>Asset 2</title><g id="Layer_2" data-name="Layer 2"><g id="Layer_1-2" data-name="Layer 1"><rect class="cls-2" x="157.46" y="64.49" width="27.87" height="2.31" transform="translate(342.79 131.28) rotate(-180)"/><circle class="cls-3" cx="151.45" cy="65.82" r="6.01"/><rect class="cls-2" x="176.26" y="86.03" width="13.78" height="2.31" transform="translate(366.3 174.37) rotate(-180)"/><circle class="cls-3" cx="170.25" cy="87.36" r="6.01"/><rect class="cls-2" x="158.1" y="108.81" width="32.59" height="2.31" transform="translate(348.79 219.93) rotate(-180)"/><circle class="cls-3" cx="152.09" cy="110.14" r="6.01"/><rect class="cls-2" x="7.02" y="64.19" width="27.87" height="2.31"/><circle class="cls-3" cx="40.9" cy="65.52" r="6.01"/><rect class="cls-2" x="2.31" y="85.73" width="13.78" height="2.31"/><circle class="cls-3" cx="22.1" cy="87.06" r="6.01"/><rect class="cls-2" x="1.66" y="108.51" width="32.59" height="2.31"/><circle class="cls-3" cx="40.26" cy="109.84" r="6.01"/><circle class="cls-4" cx="96.09" cy="96.09" r="94.59"/><circle class="cls-5" cx="95.35" cy="53.85" r="35.13"/><g class="cls-6"><circle class="cls-5" cx="96.83" cy="188.07" r="75.6"/></g><text class="cls-7" transform="translate(214.64 97.47)"><tspan class="cls-8">J</tspan><tspan class="cls-9" x="34.34" y="0">A</tspan><tspan class="cls-10" x="92.06" y="0">S</tspan><tspan class="cls-9" x="134.81" y="0">A</tspan><tspan class="cls-11" x="192.53" y="0">S</tspan><tspan x="237.66" y="0">O</tspan><tspan class="cls-12" x="294.27" y="0">S</tspan><tspan class="cls-13" x="340.34" y="0">M</tspan><tspan class="cls-14" x="416.16" y="0">E</tspan><tspan class="cls-15" x="466.14" y="0">D</tspan><tspan class="cls-16" x="514.25" y="0">.</tspan><tspan class="cls-17" x="536.69" y="0">I</tspan><tspan class="cls-18" x="557.26" y="0">D</tspan></text><text class="cls-19" transform="translate(228.56 148.5)">Layanan sosial media terbaik dan terpercaya</text></g></g></svg>